<?xml version="1.0" encoding="utf-8"?>
<!-- Generator: Adobe Illustrator 23.1.1, SVG Export Plug-In . SVG Version: 6.00 Build 0)  -->
<svg version="1.1" id="Layer_1" xmlns="http://www.w3.org/2000/svg" xmlns:xlink="http://www.w3.org/1999/xlink" x="0px" y="0px"
	 viewBox="270 235 250 140" style="enable-background:new 270 235 250 140;" xml:space="preserve" width="130px" height="33px">
<style type="text/css">
	.st0{fill:#863399;enable-background:new    ;}
	.st1{fill:#FFFFFF;}
</style>
<g>
	<g>
		<polygon points="548.8,360.8 661.6,313.6 560.6,331.3 		"/>
		<polygon class="st0" points="543.9,248.9 528.8,336.8 560.6,331.3 661.6,313.6 665.4,247.8 		"/>
	</g>
	<g>
		<path d="M195.3,242.4l-8.2,38.1h-18.8l8.2-38.1c-2.2-0.2-3.9-0.3-5.1-0.3c-7,0-14,1.6-20.9,4.8c-7,3.2-12.7,7.4-17.2,12.5
			c-4.5,5.2-6.7,10.5-6.7,15.9c0,4.4,1.1,7.6,3.4,9.5c2.3,1.9,5.7,2.9,10.3,2.9c0-0.2-0.3-0.9-0.9-2.1c-0.6-1.2-0.9-3.4-0.9-6.6
			c0-6.7,1.6-12.5,4.7-17.3c3.1-4.8,7.5-8.3,13.2-10.7l-18.5,86.9h18.4l10.2-48.1h18.8L175,337.9h18.4l20.3-95.6H195.3z"/>
		<path d="M520.8,276.9c-1.6-1.9-3.7-2.8-6.4-2.8c-2.7,0-5.3,0.7-7.6,2c-2.3,1.4-5,3.3-7.9,5.9l1.7-7.9h-18.4l-8.7,41.1
			c-1,3.5-2.4,6.4-4.1,8.6c-1.7,2.2-3.8,3.3-6.2,3.3c-3.5,0-5.2-1.8-5.2-5.5c0-1.4,0.2-2.8,0.5-4.1l9.2-43.5h-18.4l-1.4,6.8v-0.9
			c0-2-0.9-3.5-2.6-4.7c-1.7-1.2-4.3-1.8-7.8-1.8c-6.9,0-12.8,2.4-17.8,7.2c-5,4.8-8.7,10.7-11.2,17.6c-2.5,6.9-3.8,13.6-3.8,19.9
			c0,0.5,0,0.9,0,1.3c-1.4,3.2-2.9,5.8-4.6,7.7c-2.5,2.7-5.7,4.8-9.8,6.1l12.6-59.3h-18.4l-1.4,6.6v-0.8c0-2-0.9-3.5-2.6-4.7
			c-1.7-1.2-4.3-1.8-7.8-1.8c-6.9,0-12.8,2.4-17.8,7.2c-5,4.8-8.7,10.7-11.2,17.6c-2.5,6.9-3.8,13.6-3.8,19.9c0,0.2,0,0.4,0,0.7
			c-1,2-2,3.6-3,4.8c-1.5,1.8-3.6,2.7-6.1,2.7c-1.9,0-3.2-0.5-4-1.4c-0.8-0.9-1.1-2.3-1.1-4c0-1.4,0.3-3.4,0.8-5.9
			c0.6-2.5,1.2-5.1,1.9-7.7c1.1-4.3,2-8,2.6-11.1c0.6-3,0.9-5.8,0.9-8.2c0-4.9-1.3-8.5-3.8-10.9c-2.6-2.4-6-3.6-10.3-3.6
			c-5.7,0-10.7,2.4-14.9,7.2l1.4-6.6h-18.4l-8.7,41.1c-1,3.5-2.4,6.4-4.1,8.6c-1.7,2.2-3.8,3.3-6.2,3.3c-3.5,0-5.2-1.8-5.2-5.5
			c0-1.4,0.2-2.8,0.5-4.1l9.2-43.5h-18.4l-1.4,6.8v-0.9c0-2-0.9-3.5-2.6-4.7c-1.7-1.2-4.3-1.8-7.8-1.8c-6.9,0-12.8,2.4-17.8,7.2
			c-5,4.8-8.7,10.7-11.2,17.6c-2.5,6.9-3.8,13.6-3.8,19.9c0,7.1,1.6,12.3,4.9,15.6c3.2,3.3,7.3,5,12.1,5c4.2,0,7.8-1.1,10.8-3.3
			c3-2.2,5.8-5,8.2-8.5c0.4,3.8,1.7,6.8,3.9,8.8c2.2,2,5,3,8.6,3c4.7,0,9.3-1.6,14-4.9c1-0.7,2-1.6,2.9-2.5l-1.4,6.7h18.4l8.7-41
			c1-3.5,2.4-6.3,4.1-8.5c1.7-2.2,3.7-3.3,5.9-3.3c3.1,0,4.6,2.2,4.6,6.5c0,1.8-0.3,4.1-0.9,7c-0.6,2.9-1.2,5.8-1.9,8.8
			c-0.2,0.6-0.5,2-1,4.1c-0.5,2.1-0.9,4.3-1.3,6.6c-0.4,2.3-0.6,4.3-0.6,6.1c0,4.1,1.2,7.5,3.6,10.3c2.4,2.8,6.2,4.2,11.4,4.2
			c4.4,0,8.7-1.6,12.8-4.8c1.9-1.4,3.6-3.5,5.3-6.2c0.8,2.4,2,4.4,3.5,6c3.2,3.3,7.3,5,12.1,5c5.9,0,11-2.3,15.3-7l-1.5,6.8
			c-6,2-11,4.4-14.9,7.3c-3.9,2.9-5.9,6.8-5.9,11.7c0,4,1.4,7.1,4.1,9.2c2.7,2.1,6.1,3.2,10.2,3.2c5.3,0,10-1.6,14.2-4.7
			c4.2-3.1,7.1-8.8,8.8-17.1l1.9-9.2c4.9-1.3,9.4-3.7,13.3-7.2c1.3-1.2,2.5-2.6,3.6-4.2c0.8,2.5,2,4.5,3.6,6.2c3.2,3.3,7.3,5,12.1,5
			c4.2,0,7.8-1.1,10.8-3.3c3-2.2,5.8-5,8.2-8.5c0.4,3.8,1.7,6.8,3.9,8.8c2.2,2,5,3,8.6,3c4.7,0,9.3-1.6,14-4.9c1-0.7,2-1.6,2.9-2.5
			l-1.4,6.7h18.4l10.2-48.6c2-1.8,3.6-3,4.8-3.8c1.2-0.7,2.7-1.1,4.5-1.1c0.7,0,1.1,0.3,1.4,0.8c0.3,0.5,0.5,1.3,0.8,2.4
			c0.3,1.7,0.8,3,1.5,3.9s1.9,1.3,3.8,1.3c2.9,0,5.1-0.9,6.8-2.8c1.6-1.9,2.4-4,2.4-6.5C523.2,281,522.4,278.7,520.8,276.9z
			 M244.2,315.1c-0.8,3.5-2.2,6.2-4.3,8.2c-2.1,2-4.2,3-6.3,3c-1.8,0-3.3-0.6-4.5-1.8c-1.2-1.2-1.9-3.9-1.9-8.2
			c0-4.3,0.8-9.2,2.3-14.8c1.5-5.6,3.7-10.4,6.4-14.3c2.7-4,5.8-5.9,9.2-5.9c1.8,0,3.1,0.5,4,1.6c0.8,1.1,1.3,2.2,1.3,3.3
			L244.2,315.1z M368.7,348.6c-0.8,3.7-1.8,6.5-3.2,8.4c-1.4,2-2.8,2.9-4.2,2.9c-1.4,0-2.4-0.4-3.2-1.3c-0.8-0.9-1.1-1.8-1.1-2.9
			c0-4.2,4.2-7.8,12.5-10.9L368.7,348.6z M375.5,316.4c-0.8,3.1-2.2,5.5-4.2,7.3c-2,1.8-4,2.7-6,2.7c-1.8,0-3.3-0.6-4.5-1.8
			c-1.2-1.2-1.9-3.9-1.9-8.2c0-4.3,0.8-9.2,2.3-14.8c1.5-5.6,3.7-10.4,6.4-14.3c2.7-4,5.8-5.9,9.2-5.9c1.8,0,3.1,0.5,4,1.6
			c0.8,1.1,1.3,2.1,1.3,3.1L375.5,316.4z M440.6,315.1c-0.8,3.5-2.2,6.2-4.3,8.2c-2.1,2-4.2,3-6.3,3c-1.8,0-3.3-0.6-4.5-1.8
			c-1.2-1.2-1.9-3.9-1.9-8.2c0-4.3,0.8-9.2,2.3-14.8c1.5-5.6,3.7-10.4,6.4-14.3c2.7-4,5.8-5.9,9.2-5.9c1.8,0,3.1,0.5,4,1.6
			c0.8,1.1,1.3,2.2,1.3,3.3L440.6,315.1z"/>
	</g>
	<g>
		<path class="st1" d="M592.6,282.4c-1.4-1.4-3.2-2.6-5.1-3.4c-1.4-0.6-2.9-1-4.5-1.2l11.7-17.7h-10.4l-8.9,13.4l-7.6,11.3
			c-0.9,1.3-1.6,2.7-2,4.2c-0.5,1.5-0.7,3.1-0.7,4.7c0,2.2,0.4,4.2,1.3,6.1c0.8,1.9,2,3.6,3.4,5c1.4,1.4,3.2,2.6,5.1,3.4
			c2,0.8,4.1,1.2,6.3,1.2c2.2,0,4.4-0.4,6.3-1.2c1.9-0.8,3.7-2,5.1-3.4c1.4-1.4,2.6-3.1,3.5-5c0.9-1.9,1.3-4,1.3-6.1
			c0-2.2-0.4-4.3-1.3-6.2C595.2,285.6,594,283.9,592.6,282.4z M588,293.6c0,1.1-0.2,2.1-0.5,2.9c-0.4,0.9-0.9,1.7-1.5,2.3
			c-0.6,0.6-1.3,1.2-2.1,1.5c-1.6,0.7-3.6,0.7-5.2,0c-0.8-0.4-1.6-0.9-2.2-1.5c-0.6-0.6-1.1-1.4-1.5-2.3c-0.4-0.9-0.5-1.9-0.5-2.9
			c0-1.1,0.2-2.1,0.5-2.9c0.4-0.9,0.9-1.7,1.5-2.3c0.6-0.7,1.4-1.2,2.2-1.6c0.8-0.4,1.7-0.6,2.6-0.6c0.9,0,1.8,0.2,2.6,0.6
			c0.8,0.4,1.5,0.9,2.1,1.5c0.6,0.6,1.1,1.4,1.5,2.3C587.8,291.6,588,292.6,588,293.6z"/>
		<polygon class="st1" points="604.9,260 604.9,268.2 625.9,268.2 607.9,303.3 604.8,309.4 614.6,309.4 639.9,260 		"/>
	</g>
</g>
</svg>
